{"title":"Cirque du Soleil Worlds Away 2012 BRRip XVID juggs","uid":8218627,"size":739516691,"categoryP":"video","categoryS":"movies","magnet":"?xt=urn:btih:224b4f7537c8d5d5c34fc040b7155b34fa26b81f&amp;dn=Cirque+du+Soleil+Worlds+Away+2012+BRRip+XVID+juggs&amp;tr=udp%3A%2F%2Ftracker.openbittorrent.com%3A80&amp;tr=udp%3A%2F%2Fopen.demonii.com%3A1337&amp;tr=udp%3A%2F%2Ftracker.coppersurfer.tk%3A6969&amp;tr=udp%3A%2F%2Fexodus.desync.com%3A6969","seeders":2,"leechers":1,"uploader":"juggs99","files":3,"time":1362418387,"description":"Source : PSYCHD\n\n\nFormat : AVI\nFormat/Info : Audio Video Interleave\nFile size : 701 MiB\nDuration : 1h 31mn\nOverall bit rate : 1 074 Kbps\nWriting library : VirtualDub build 32842/release\n\nVideo\nID : 0\nFormat : MPEG-4 Visual\nFormat profile : Advanced Simple@L5\nFormat settings, BVOP : 4\nFormat settings, QPel : No\nFormat settings, GMC : No warppoints\nFormat settings, Matrix : Default (H.263)\nMuxing mode : Packed bitstream\nCodec ID : XVID\nCodec ID/Hint : XviD\nDuration : 1h 31mn\nBit rate : 937 Kbps\nWidth : 640 pixels\nHeight : 352 pixels\nDisplay aspect ratio : 16:9\nFrame rate : 23.976 fps\nColor space : YUV\nChroma subsampling : 4:2:0\nBit depth : 8 bits\nScan type : Progressive\nCompression mode : Lossy\nBits/(Pixel*Frame) : 0.173\nStream size : 611 MiB (87%)\nWriting library : XviD 64\n\nAudio\nID : 1\nFormat : MPEG Audio\nFormat version : Version 1\nFormat profile : Layer 3\nCodec ID : 55\nCodec ID/Hint : MP3\nDuration : 1h 31mn\nBit rate mode : Constant\nBit rate : 128 Kbps\nChannel(s) : 2 channels\nSampling rate : 44.1 KHz\nCompression mode : Lossy\nStream size : 83.5 MiB (12%)\nAlignment : Split accross interleaves\nInterleave, duration : 42 ms (1.00 video frame)\nInterleave, preload duration : 500 ms\nWriting library : LAME3.99r\nEncoding settings : -m s -V 4 -q 3 -lowpass 17 -b 128\n\n\nPlot\nA young woman is entranced by an Aerialist. When they fall into the dreamlike world of Cirque du Soleil and are separated, they travel through the different tent worlds trying to find each other. \n\n &lt;a href=&quot;\nhttp://www.shotpix.com/images/27109393429457661116.png&quot; rel=&quot;nofollow&quot; target=&quot;_NEW&quot;&gt;\nhttp://www.shotpix.com/images/27109393429457661116.png&lt;/a&gt; &lt;a href=&quot;\nhttp://www.shotpix.com/images/00774642851235398680.png&quot; rel=&quot;nofollow&quot; target=&quot;_NEW&quot;&gt;\nhttp://www.shotpix.com/images/00774642851235398680.png&lt;/a&gt; &lt;a href=&quot;\nhttp://www.shotpix.com/images/05038405552448295544.png&quot; rel=&quot;nofollow&quot; target=&quot;_NEW&quot;&gt;\nhttp://www.shotpix.com/images/05038405552448295544.png&lt;/a&gt;","torrent":{"xt":"urn:btih:224b4f7537c8d5d5c34fc040b7155b34fa26b81f","amp;dn":"Cirque+du+Soleil+Worlds+Away+2012+BRRip+XVID+juggs","amp;tr":["udp%3A%2F%2Ftracker.openbittorrent.com%3A80","udp%3A%2F%2Fopen.demonii.com%3A1337","udp%3A%2F%2Ftracker.coppersurfer.tk%3A6969","udp%3A%2F%2Fexodus.desync.com%3A6969"],"infoHash":"224b4f7537c8d5d5c34fc040b7155b34fa26b81f","infoHashBuffer":{"type":"Buffer","data":[34,75,79,117,55,200,213,213,195,79,192,64,183,21,91,52,250,38,184,31]},"announce":[],"urlList":[]}}